<svg xmlns="http://www.w3.org/2000/svg" width="104" height="39" fill="none">
  <path fill="#030A06" d="M17.084.355c-.203 0-.417 0-.618.025-2.333.194-4.477 1.185-6.004 2.991C8.801 5.336 8.4 7.406 8.418 9.908L3.973 9.9c-.199 0-.405-.006-.614-.012-.58-.016-1.182-.032-1.725.067-.328.06-.614.22-.844.46-.404.42-.413.95-.387 1.493.041.857.115 1.715.188 2.572.04.466.08.933.115 1.398l.738 9.533.359 4.604c.017.227.032.457.046.687.05.824.102 1.66.32 2.448a7.388 7.388 0 0 0 5.313 5.181c.996.24 2.154.213 3.241.188.324-.008.641-.015.946-.015l5.985-.002 5.226.002c.285 0 .58.007.877.014.965.023 1.971.047 2.873-.163 1.27-.296 2.554-.992 3.48-1.91.862-.856 1.551-1.998 1.852-3.178.23-.902.288-1.892.344-2.853.018-.31.036-.616.06-.915l.49-6.314.612-7.753c.03-.383.068-.77.106-1.157.083-.841.167-1.688.165-2.519 0-.51-.109-.987-.475-1.367-.252-.261-.664-.389-1.013-.446-.522-.085-1.095-.07-1.65-.055-.204.005-.406.01-.603.011-1.398-.003-2.796.002-4.194.015h-.06c.033-2.678-.564-4.977-2.49-6.936a8.584 8.584 0 0 0-6.14-2.624h-.03Zm8.473 15.281.075.004.005.015.003.006c.003.008.006.015.01.021l.002.008c.014.03.017.037.016.087-.024 3.285-.903 7.514-3.235 9.92-2.159 2.228-5.511 3.32-8.569 3.381 1.424-2.678 3.713-5.218 6.073-7.105a19.83 19.83 0 0 1 1.13-.818c.246-.17.492-.34.734-.517.235-.173.551-.407.585-.72.03-.29-.124-.515-.305-.722-.254-.147-.44-.208-.73-.123-.411.12-.826.425-1.2.7-.1.073-.195.143-.288.208a25.143 25.143 0 0 0-7.365 8.159c-.061-2.627.537-4.828 2.148-6.942 2.418-3.172 7.047-5.036 10.91-5.562ZM2.06 11.546H32.09a81.976 81.976 0 0 0-.245 3.051c-.038.568-.077 1.135-.121 1.7l-.809 10.133-.302 3.733a62 62 0 0 0-.038.489c-.049.644-.098 1.294-.222 1.925-.128.647-.376 1.21-.711 1.774a6.26 6.26 0 0 1-.42.566c-.871 1.04-2.3 1.815-3.658 1.918-.739.056-1.5.042-2.253.028-.326-.006-.65-.012-.972-.012l-6.23-.002-4.957.002c-.24 0-.483.005-.728.01-.752.016-1.521.032-2.244-.093a5.355 5.355 0 0 1-2.564-1.209 5.6 5.6 0 0 1-1.8-2.83c-.202-.733-.252-1.514-.302-2.28a44.667 44.667 0 0 0-.04-.575l-.294-3.798-1.119-14.53Zm24.162 2.33-.022.002c-4.558.527-9.748 2.402-12.694 6.095-1.894 2.373-2.928 5.46-2.587 8.499a9.04 9.04 0 0 0 .444 1.94l-.089.225c-.374.94-1.243 3.125-.94 3.772a.743.743 0 0 0 .458.373c.08.025.16.04.243.05.255-.043.491-.096.645-.324.165-.246.334-.836.479-1.34.068-.241.132-.462.187-.618.187-.532.4-1.055.612-1.577l.002-.007.075-.183c3.759.011 7.773-1.166 10.492-3.849 3.041-3 3.808-7.84 3.814-11.935 0-.323-.022-.706-.258-.953-.146-.152-.364-.198-.567-.194a3.523 3.523 0 0 0-.294.024ZM16.72 1.998a6.37 6.37 0 0 1 .437-.016c1.786.012 3.573.81 4.828 2.069 1.708 1.713 2.058 3.531 2.061 5.857l-6.541-.004-7.361.01c-.057-2 .265-3.825 1.577-5.403 1.26-1.517 3.058-2.34 4.999-2.513Z"/>
  <path fill="#030A06" d="m25.632 15.64-.076-.004c-3.863.526-8.492 2.39-10.91 5.562-1.611 2.114-2.21 4.315-2.148 6.942a25.142 25.142 0 0 1 7.365-8.159c.093-.065.189-.135.288-.208.374-.275.789-.58 1.2-.7.29-.085.476-.024.73.123.181.207.335.432.305.721-.034.314-.35.548-.585.72-.242.178-.488.348-.734.518a19.83 19.83 0 0 0-1.13.818c-2.36 1.887-4.649 4.427-6.073 7.105 3.058-.06 6.41-1.153 8.57-3.381 2.33-2.406 3.21-6.635 3.234-9.92 0-.05-.002-.056-.016-.087l-.012-.029a1.376 1.376 0 0 1-.008-.02Zm.569-1.762.022-.002c.098-.01.196-.021.294-.024.203-.004.421.042.567.194.236.247.258.63.258.953-.007 4.095-.773 8.934-3.814 11.935-2.719 2.683-6.733 3.86-10.492 3.849l-.075.183-.002.006a35.579 35.579 0 0 0-.612 1.578c-.055.156-.119.377-.188.617-.144.505-.313 1.095-.478 1.341-.154.228-.39.281-.645.323a1.31 1.31 0 0 1-.243-.049.742.742 0 0 1-.459-.373c-.302-.647.567-2.832.941-3.772l.09-.225a9.04 9.04 0 0 1-.445-1.94c-.341-3.04.693-6.126 2.587-8.5 2.946-3.692 8.136-5.567 12.694-6.094Z"/>
  <path fill="#030A06" d="m26.223 13.876-.022.002c-4.558.527-9.748 2.402-12.694 6.095-1.894 2.373-2.928 5.46-2.587 8.499a9.04 9.04 0 0 0 .444 1.94l-.089.225c-.374.94-1.243 3.125-.94 3.772a.743.743 0 0 0 .458.373c.08.025.16.04.243.05.255-.043.491-.096.645-.324.165-.246.334-.836.478-1.34.07-.241.133-.462.187-.618.188-.532.4-1.055.613-1.577l.002-.007.075-.183c3.758.011 7.773-1.166 10.492-3.849 3.041-3 3.807-7.84 3.813-11.935 0-.323-.021-.706-.258-.953-.145-.152-.363-.198-.566-.194a3.523 3.523 0 0 0-.294.024Zm-.667 1.76.076.004a.763.763 0 0 0 .008.021l.012.029c.014.03.017.037.016.087-.024 3.285-.903 7.514-3.235 9.92-2.159 2.228-5.511 3.32-8.569 3.381 1.424-2.678 3.713-5.218 6.073-7.105.365-.291.747-.555 1.13-.818.246-.17.492-.34.734-.517.235-.173.551-.407.585-.72.03-.29-.124-.515-.305-.722-.254-.147-.44-.208-.73-.123-.411.12-.826.425-1.2.7-.1.073-.196.143-.288.208a25.143 25.143 0 0 0-7.365 8.159c-.061-2.627.537-4.828 2.148-6.942 2.418-3.172 7.047-5.036 10.91-5.562ZM84.916 25.007a5.85 5.85 0 1 0-11.693.413 5.85 5.85 0 0 0 11.693-.413Zm-5.849-3.885c.942.039 1.706.265 2.424.901.855.757 1.332 1.851 1.395 2.984.063 1.134-.294 2.284-1.066 3.129-.706.772-1.586 1.118-2.617 1.17-.94-.01-1.717-.157-2.46-.774-.866-.721-1.356-1.79-1.448-2.903-.096-1.159.207-2.356.976-3.245.763-.88 1.664-1.184 2.796-1.262ZM68.657 24.523a5.847 5.847 0 1 0-11.61 1.39 5.847 5.847 0 0 0 11.61-1.39Zm-6.324-3.353c.936-.077 1.785.022 2.576.566.888.61 1.446 1.554 1.631 2.608.21 1.197.013 2.476-.707 3.473-.63.873-1.418 1.307-2.467 1.474-.958.049-1.805-.01-2.612-.58a3.956 3.956 0 0 1-1.627-2.603c-.196-1.16.039-2.494.73-3.458.61-.848 1.458-1.318 2.476-1.48ZM97.18 19.36a.998.998 0 0 0-.086.007c-1.473.174-2.799.886-3.725 2.055-1.056 1.334-1.418 3.026-1.21 4.7a5.54 5.54 0 0 0 2.088 3.721c1.38 1.073 3.13 1.345 4.835 1.112.987-.135 2.47-.608 3.1-1.429.178-.23.267-.512.226-.803a.776.776 0 0 0-.286-.525c-.194-.144-.452-.162-.681-.117-.319.062-.605.26-.877.446-.057.04-.113.079-.169.116-1.191.619-2.512.91-3.822.485a3.652 3.652 0 0 1-2.135-1.857c-.226-.45-.339-.928-.439-1.418h5.62c.234 0 .485.008.743.016.667.022 1.38.044 1.968-.06a.884.884 0 0 0 .45-.239c.276-.27.325-.65.317-1.018-.032-1.408-.693-2.797-1.717-3.75-1.183-1.1-2.61-1.514-4.2-1.442Zm.173 1.76c.853-.1 1.714.117 2.417.612.84.597 1.281 1.445 1.458 2.443-.712.008-1.426.006-2.139.005-.356-.002-.713-.002-1.069-.002l-3.953.005c.181-.608.391-1.16.78-1.67.627-.82 1.494-1.26 2.506-1.394Z"/>
  <path fill="#030A06" d="M65.877 15.18c2.11-.05 4.23-.003 6.342-.007 1.202-.002 2.738-.1 3.905.02.188.02.338.074.48.198.204.178.339.445.346.717.006.245-.144.526-.32.69-.136.125-.297.175-.475.204-.486.078-1.022.033-1.515.032l-2.62-.005v9.72c.003.82.107 2.606-.016 3.303a1.208 1.208 0 0 1-.269.605.849.849 0 0 1-.626.276c-.251.005-.497-.05-.678-.233-.214-.214-.292-.53-.319-.822-.048-.54-.004-1.11.003-1.652.009-.802.002-1.605.001-2.407l.006-8.791c-.87.004-3.886.143-4.504-.137a.797.797 0 0 1-.448-.495.912.912 0 0 1 .078-.745c.148-.268.345-.383.63-.47ZM52.078 19.368c.784-.044 1.55.006 2.31.21.804.214 2.032.688 2.448 1.45.114.21.174.462.093.694-.082.237-.307.418-.534.51-.66.271-1.488-.64-2.11-.873-1.01-.381-2.226-.36-3.21.099-.903.422-1.553 1.22-1.889 2.149-.39 1.076-.423 2.48.072 3.53.46.973 1.305 1.653 2.308 2.007 1.148.406 2.344.19 3.417-.324.332-.18.634-.42 1.013-.498a.7.7 0 0 1 .555.096c.206.143.372.424.4.673.025.233-.066.447-.21.626-.628.778-2.025 1.17-2.975 1.286-1.65.202-3.369-.129-4.69-1.181a5.761 5.761 0 0 1-2.184-3.974 5.973 5.973 0 0 1 1.274-4.351 5.743 5.743 0 0 1 3.912-2.13ZM87.315 16.416l.098-.004c.293-.01.587.07.793.285.493.515.297 2.251.292 2.962.671.004 2.305-.205 2.809.243.182.162.256.387.257.627 0 .233-.06.455-.232.62-.47.445-2.17.27-2.835.265.006 1.428-.187 5.829.253 6.912.711 1.752 2.253.21 3.132.625a.85.85 0 0 1 .412.47c.1.278.011.527-.103.781l-.059.064c-.53.554-1.529.687-2.262.697-.85.012-1.654-.132-2.282-.761-.454-.455-.736-1.08-.875-1.7-.213-.96-.125-2.022-.124-3l.002-4.086c-.516 0-1.032-.004-1.548-.012a1.693 1.693 0 0 1-.243-.176c-.203-.183-.296-.457-.303-.727a.778.778 0 0 1 .231-.605c.417-.386 1.333-.248 1.863-.238-.001-.744-.164-2.076.116-2.73.125-.29.329-.396.608-.512Z"/>
  <path fill="#030A06" fill-rule="evenodd" d="M46.395 16.138c-.89-.088-5.239-.057-6.748-.035-.277.005-.535.023-.76.04-.193.014-.363.027-.503.027 0 0-.6.141-.795.411-.127.178-.17.402-.201.614-.161 1.124-.256 2.27-.35 3.413-.05.601-.099 1.202-.158 1.797l-.572 5.776c-.015.155-.042.365-.072.605-.097.773-.23 1.845-.144 2.272a.806.806 0 0 0 .382.555c.207.121.44.19.675.23h.002c.485 0 1.217.007 2.035.015 1.695.018 6.006.04 7.009-.004.2-.009.411-.026.6-.097a.948.948 0 0 0 .56-.534c.102-.256.08-.543-.035-.791a.794.794 0 0 0-.53-.466h-8.665c.144-1.276.274-2.553.388-3.832l.102-1.04.01-.103.263.004c.882.014 5.178.045 5.725-.037.2-.03.388-.08.535-.228a.935.935 0 0 0 .254-.724.93.93 0 0 0-.285-.624.78.78 0 0 0-.408-.187c-.512-.075-4.33-.055-5.295-.042-.258.003-.473.006-.612.006l.44-5.182h4.675c.238 0 .487.008.739.016.61.02 1.243.04 1.81-.048.202-.03.375-.1.521-.247a.955.955 0 0 0 .264-.705.925.925 0 0 0-.856-.855Z" clip-rule="evenodd"/>
</svg>
